<svg xmlns="http://www.w3.org/2000/svg" xmlns:xlink="http://www.w3.org/1999/xlink" viewBox="0 0 506.57 97.27"><defs><style>.cls-1{fill:url(#linear-gradient);}.cls-2{fill:url(#linear-gradient-2);}</style><linearGradient id="linear-gradient" y1="32.88" x2="63.78" y2="32.88" gradientUnits="userSpaceOnUse"><stop offset="0" stop-color="#924bee"/><stop offset="1" stop-color="#68c3e9"/></linearGradient><linearGradient id="linear-gradient-2" x1="13.83" y1="64.41" x2="77.6" y2="64.41" gradientUnits="userSpaceOnUse"><stop offset="0" stop-color="#6fc3ef"/><stop offset="1" stop-color="#6378cf"/></linearGradient></defs><g id="Layer_2" data-name="Layer 2"><g id="Layer_1-2" data-name="Layer 1"><path class="cls-1" d="M0,34.27A36.41,36.41,0,0,1,8,14,36.71,36.71,0,0,1,31.51.5,38.3,38.3,0,0,1,62.27,8.74c.34.27.6.64.93.93.9.8.69,1.4-.2,2.1-2.31,1.79-5.11,2.77-7.46,4.47C50.38,20,44.7,23,40.37,27.89a23.75,23.75,0,0,0-6.2,15.65c-.11,3.82.49,7.63,0,11.46-.49,4.16-1.84,7.77-5.68,10-2.53,1.46-5.1.59-7.47-.25A31.32,31.32,0,0,1,2.42,47.33,38.89,38.89,0,0,1,0,34.27Z"/><path class="cls-2" d="M77.6,61.85a36,36,0,0,1-9.44,23A38.88,38.88,0,0,1,50.43,96,29.89,29.89,0,0,1,44.82,97a43.81,43.81,0,0,1-9.44,0,39.74,39.74,0,0,1-15.29-5,38.66,38.66,0,0,1-5.5-3.87c-1.15-1-.93-1.54.16-2.22,3.29-2.07,6.57-4.16,9.87-6.21a74,74,0,0,0,10.49-7.61c6.77-6.07,9.45-13.68,8.43-22.72-.48-4.27-.35-8.54,1.82-12.47,2.86-5.2,5.81-6.4,11.37-4.43A30,30,0,0,1,75.57,51.06,32.1,32.1,0,0,1,77.6,61.85Z"/><path d="M94.35,44.53a14.22,14.22,0,0,1,2.41-8.16,16.55,16.55,0,0,1,6.65-5.58,22.15,22.15,0,0,1,9.67-2,21.59,21.59,0,0,1,9.5,1.93,14.44,14.44,0,0,1,6.17,5.44,15.59,15.59,0,0,1,2.17,8.33H119.83A5.2,5.2,0,0,0,118,40.23a7.56,7.56,0,0,0-5-1.55,9.14,9.14,0,0,0-5.4,1.44,4.64,4.64,0,0,0-2,4,4.84,4.84,0,0,0,1.24,3.58,7.67,7.67,0,0,0,3.92,1.79l7.65,1.58q6.81,1.38,10.12,4.79t3.3,9.46a15.31,15.31,0,0,1-2.41,8.58,15.78,15.78,0,0,1-6.78,5.68,24.44,24.44,0,0,1-10.23,2,23.6,23.6,0,0,1-9.88-1.93A14.41,14.41,0,0,1,93.6,65.87h11.08a5,5,0,0,0,2,4.27,9.29,9.29,0,0,0,5.71,1.52,11,11,0,0,0,6-1.41,4.35,4.35,0,0,0,2.21-3.83,4.73,4.73,0,0,0-1.07-3.3,6.41,6.41,0,0,0-3.62-1.65l-7.78-1.59q-6.81-1.37-10.29-5.23A14.52,14.52,0,0,1,94.35,44.53Z"/><path d="M153.77,81.57a18,18,0,0,1-9.19-2.34,16.81,16.81,0,0,1-6.33-6.44,18.78,18.78,0,0,1-2.31-9.39,19.46,19.46,0,0,1,2.24-9.47,16.49,16.49,0,0,1,6.23-6.44,17.76,17.76,0,0,1,9.16-2.34,18.61,18.61,0,0,1,9.36,2.24A15.17,15.17,0,0,1,169,53.72a20.86,20.86,0,0,1,2.13,9.74v2.69l-29.6.14.14-6.54h18.93a5.51,5.51,0,0,0-1.86-4.38,7.54,7.54,0,0,0-5.09-1.61,8.3,8.3,0,0,0-4.38,1,6.17,6.17,0,0,0-2.51,3.2,15.77,15.77,0,0,0-.83,5.54c0,3.22.66,5.59,2,7.13S151.23,73,154,73a10.9,10.9,0,0,0,5-1A4.72,4.72,0,0,0,161.55,69h9.71a13.36,13.36,0,0,1-5.64,9.12A19.77,19.77,0,0,1,153.77,81.57Z"/><path d="M188,80.68h-10.6V46.25h10l.69,3.58a10.46,10.46,0,0,1,4.38-3.44,14.9,14.9,0,0,1,6.16-1.24q6.12,0,9.53,3.75t3.41,10.5V80.68h-10.6V62a7.81,7.81,0,0,0-1.65-5.2,5.49,5.49,0,0,0-4.41-2,6.74,6.74,0,0,0-5,1.89A7,7,0,0,0,188,61.81Z"/><path d="M215.88,46.25h23.68v8.81H215.88ZM233,80.68h-10.6V35.58H233Z"/><path d="M249.55,40.88a6,6,0,0,1-6.06-6.06,5.74,5.74,0,0,1,1.75-4.27,5.93,5.93,0,0,1,4.31-1.72,5.81,5.81,0,0,1,4.23,1.72,5.75,5.75,0,0,1,1.76,4.27,5.85,5.85,0,0,1-1.76,4.3A5.77,5.77,0,0,1,249.55,40.88Zm-5.23,39.8V46.25h10.6V80.68Z"/><path d="M273.51,80.68H262.9V46.25h10l.69,3.58A10.37,10.37,0,0,1,278,46.39a14.93,14.93,0,0,1,6.16-1.24q6.13,0,9.54,3.75t3.41,10.5V80.68H286.45V62a7.81,7.81,0,0,0-1.65-5.2,5.46,5.46,0,0,0-4.41-2,6.72,6.72,0,0,0-5,1.89,7,7,0,0,0-1.86,5.13Z"/><path d="M320.6,81.57a18,18,0,0,1-9.19-2.34,16.81,16.81,0,0,1-6.33-6.44,18.78,18.78,0,0,1-2.31-9.39A19.46,19.46,0,0,1,305,53.93a16.49,16.49,0,0,1,6.23-6.44,17.76,17.76,0,0,1,9.16-2.34,18.63,18.63,0,0,1,9.36,2.24,15.17,15.17,0,0,1,6.06,6.33A20.86,20.86,0,0,1,338,63.46v2.69l-29.6.14.13-6.54h18.94a5.51,5.51,0,0,0-1.86-4.38,7.54,7.54,0,0,0-5.09-1.61,8.3,8.3,0,0,0-4.38,1,6.17,6.17,0,0,0-2.51,3.2,15.77,15.77,0,0,0-.83,5.54c0,3.22.66,5.59,2,7.13S318.06,73,320.81,73a10.9,10.9,0,0,0,5-1A4.72,4.72,0,0,0,328.38,69h9.71a13.39,13.39,0,0,1-5.64,9.12A19.77,19.77,0,0,1,320.6,81.57Z"/><path d="M354.82,80.68h-10.6V28.76h10.6Z"/><path d="M375.27,29.73v51H364.12V29.73Zm9.5,34H372.52V53.82h9.78q4.05,0,6.05-1.75c1.34-1.17,2-3,2-5.34a6.7,6.7,0,0,0-2-5.33q-2-1.76-6.05-1.76h-9.78V29.73h12.25a18.75,18.75,0,0,1,9.13,2.13,15.3,15.3,0,0,1,6.06,6,17.79,17.79,0,0,1,2.16,8.91A17.83,17.83,0,0,1,400,55.65a15.37,15.37,0,0,1-6.06,6A18.75,18.75,0,0,1,384.77,63.74Z"/><path d="M413,80.68H401.37l18.17-50.95h10.88l18.11,51H436.69l-3.58-10.74H416.65Zm10.54-31-3.65,10.88h10.05l-3.65-10.88c-.27-.87-.55-1.76-.82-2.68a16.79,16.79,0,0,1-.55-2.27A22.18,22.18,0,0,1,424.4,47C424.15,47.87,423.86,48.78,423.54,49.69Z"/><path d="M465.26,80.68H454.45V29.73h10.81l15.15,38,15.22-38h10.94v51H495.76V63.19c0-1.79,0-3.28.07-4.48s.11-2.23.17-3.13.18-1.82.32-2.79L485.5,80.68H475.31L464.57,52.79a45.22,45.22,0,0,1,.59,6.13c.07,2.2.1,4.71.1,7.5Z"/></g></g></svg>