<svg xmlns="http://www.w3.org/2000/svg" xmlns:xlink="http://www.w3.org/1999/xlink" viewBox="0 0 77.6 97.27"><defs><style>.cls-1{fill:url(#linear-gradient);}.cls-2{fill:url(#linear-gradient-2);}</style><linearGradient id="linear-gradient" y1="32.88" x2="63.78" y2="32.88" gradientUnits="userSpaceOnUse"><stop offset="0" stop-color="#924bee"/><stop offset="1" stop-color="#68c3e9"/></linearGradient><linearGradient id="linear-gradient-2" x1="13.83" y1="64.41" x2="77.6" y2="64.41" gradientUnits="userSpaceOnUse"><stop offset="0" stop-color="#6fc3ef"/><stop offset="1" stop-color="#6378cf"/></linearGradient></defs><g id="Layer_2" data-name="Layer 2"><g id="Layer_1-2" data-name="Layer 1"><path class="cls-1" d="M0,34.27A36.41,36.41,0,0,1,8,14,36.71,36.71,0,0,1,31.51.5,38.3,38.3,0,0,1,62.27,8.74c.34.27.6.64.93.93.9.8.69,1.4-.2,2.1-2.31,1.79-5.11,2.77-7.46,4.47C50.38,20,44.7,23,40.37,27.89a23.75,23.75,0,0,0-6.2,15.65c-.11,3.82.49,7.63,0,11.46-.49,4.16-1.84,7.77-5.68,10-2.53,1.46-5.1.59-7.47-.25A31.32,31.32,0,0,1,2.42,47.33,38.89,38.89,0,0,1,0,34.27Z"/><path class="cls-2" d="M77.6,61.85a36,36,0,0,1-9.44,23A38.88,38.88,0,0,1,50.43,96,29.89,29.89,0,0,1,44.82,97a43.81,43.81,0,0,1-9.44,0,39.74,39.74,0,0,1-15.29-5,38.66,38.66,0,0,1-5.5-3.87c-1.15-1-.93-1.54.16-2.22,3.29-2.07,6.57-4.16,9.87-6.21a74,74,0,0,0,10.49-7.61c6.77-6.07,9.45-13.68,8.43-22.72-.48-4.27-.35-8.54,1.82-12.47,2.86-5.2,5.81-6.4,11.37-4.43A30,30,0,0,1,75.57,51.06,32.1,32.1,0,0,1,77.6,61.85Z"/></g></g></svg>